<?xml version="1.0" encoding="UTF-8" standalone="no"?>
<!DOCTYPE svg PUBLIC "-//W3C//DTD SVG 1.1//EN"
 "http://www.w3.org/Graphics/SVG/1.1/DTD/svg11.dtd">
<!-- Generated by graphviz version 2.43.0 (0)
 -->
<!-- Title: protocol_envelope Pages: 1 -->
<svg width="1111pt" height="648pt"
 viewBox="0.00 0.00 1110.86 648.00" xmlns="http://www.w3.org/2000/svg" xmlns:xlink="http://www.w3.org/1999/xlink">
<g id="graph0" class="graph" transform="scale(0.92 0.92) rotate(0) translate(28.8 676.8)">
<title>protocol_envelope</title>
<polygon fill="white" stroke="transparent" points="-28.8,28.8 -28.8,-676.8 1180.8,-676.8 1180.8,28.8 -28.8,28.8"/>
<!-- ENV -->
<g id="node1" class="node">
<title>ENV</title>
<polygon fill="#1e40af" stroke="black" points="162.5,-385.34 59.5,-385.34 59.5,-349.34 162.5,-349.34 162.5,-385.34"/>
<text text-anchor="middle" x="111" y="-364.54" font-family="Helvetica,sans-Serif" font-size="11.00" fill="white">Intent Envelope</text>
</g>
<!-- ID -->
<g id="node2" class="node">
<title>ID</title>
<polygon fill="#dbeafe" stroke="black" points="557,-646.34 493,-646.34 493,-610.34 557,-610.34 557,-646.34"/>
<text text-anchor="middle" x="525" y="-625.54" font-family="Helvetica,sans-Serif" font-size="11.00">intent_id</text>
</g>
<!-- ENV&#45;&gt;ID -->
<g id="edge1" class="edge">
<title>ENV&#45;&gt;ID</title>
<path fill="none" stroke="black" d="M131.25,-385.65C177.41,-428.61 299.54,-536.83 420,-597.34 439.78,-607.28 463.32,-614.63 482.99,-619.67"/>
<polygon fill="black" stroke="black" points="482.34,-623.11 492.89,-622.1 484.01,-616.31 482.34,-623.11"/>
</g>
<!-- TYPE -->
<g id="node3" class="node">
<title>TYPE</title>
<polygon fill="#dbeafe" stroke="black" points="630,-588.34 420,-588.34 420,-552.34 630,-552.34 630,-588.34"/>
<text text-anchor="middle" x="525" y="-573.54" font-family="Helvetica,sans-Serif" font-size="11.00">intent_type</text>
<text text-anchor="middle" x="525" y="-561.54" font-family="Helvetica,sans-Serif" font-size="11.00">(e.g. finance.approve_payment.v1)</text>
</g>
<!-- ENV&#45;&gt;TYPE -->
<g id="edge2" class="edge">
<title>ENV&#45;&gt;TYPE</title>
<path fill="none" stroke="black" d="M139.4,-385.38C191.96,-419.34 311.39,-493.49 420,-539.34 428.29,-542.84 437.1,-546.11 445.95,-549.12"/>
<polygon fill="black" stroke="black" points="444.96,-552.48 455.55,-552.28 447.14,-545.83 444.96,-552.48"/>
</g>
<!-- FROM -->
<g id="node4" class="node">
<title>FROM</title>
<polygon fill="#dbeafe" stroke="black" points="564.5,-530.34 485.5,-530.34 485.5,-494.34 564.5,-494.34 564.5,-530.34"/>
<text text-anchor="middle" x="525" y="-509.54" font-family="Helvetica,sans-Serif" font-size="11.00">from_agent</text>
</g>
<!-- ENV&#45;&gt;FROM -->
<g id="edge3" class="edge">
<title>ENV&#45;&gt;FROM</title>
<path fill="none" stroke="black" d="M157.85,-385.37C217.74,-408.68 326.03,-449.98 420,-481.34 437.93,-487.33 457.77,-493.38 475.28,-498.53"/>
<polygon fill="black" stroke="black" points="474.71,-502.01 485.29,-501.45 476.67,-495.29 474.71,-502.01"/>
</g>
<!-- TO -->
<g id="node5" class="node">
<title>TO</title>
<polygon fill="#dbeafe" stroke="black" points="557.5,-472.34 492.5,-472.34 492.5,-436.34 557.5,-436.34 557.5,-472.34"/>
<text text-anchor="middle" x="525" y="-451.54" font-family="Helvetica,sans-Serif" font-size="11.00">to_agent</text>
</g>
<!-- ENV&#45;&gt;TO -->
<g id="edge4" class="edge">
<title>ENV&#45;&gt;TO</title>
<path fill="none" stroke="black" d="M162.52,-378.01C244.71,-395.37 405.85,-429.39 482.1,-445.5"/>
<polygon fill="black" stroke="black" points="481.77,-449 492.28,-447.65 483.22,-442.15 481.77,-449"/>
</g>
<!-- COR -->
<g id="node6" class="node">
<title>COR</title>
<polygon fill="#dbeafe" stroke="black" points="570.5,-414.34 479.5,-414.34 479.5,-378.34 570.5,-378.34 570.5,-414.34"/>
<text text-anchor="middle" x="525" y="-393.54" font-family="Helvetica,sans-Serif" font-size="11.00">correlation_id</text>
</g>
<!-- ENV&#45;&gt;COR -->
<g id="edge5" class="edge">
<title>ENV&#45;&gt;COR</title>
<path fill="none" stroke="black" d="M162.52,-370.9C240.25,-376.37 388.6,-386.81 468.97,-392.47"/>
<polygon fill="black" stroke="black" points="469.15,-395.99 479.37,-393.2 469.64,-389.01 469.15,-395.99"/>
</g>
<!-- REP -->
<g id="node7" class="node">
<title>REP</title>
<polygon fill="#dbeafe" stroke="black" points="555.5,-356.34 494.5,-356.34 494.5,-320.34 555.5,-320.34 555.5,-356.34"/>
<text text-anchor="middle" x="525" y="-335.54" font-family="Helvetica,sans-Serif" font-size="11.00">reply_to</text>
</g>
<!-- ENV&#45;&gt;REP -->
<g id="edge6" class="edge">
<title>ENV&#45;&gt;REP</title>
<path fill="none" stroke="black" d="M162.52,-363.79C245.53,-357.94 409.08,-346.43 484.36,-341.13"/>
<polygon fill="black" stroke="black" points="484.65,-344.62 494.38,-340.43 484.16,-337.64 484.65,-344.62"/>
</g>
<!-- PAY -->
<g id="node8" class="node">
<title>PAY</title>
<polygon fill="#dbeafe" stroke="black" points="583,-298.34 467,-298.34 467,-262.34 583,-262.34 583,-298.34"/>
<text text-anchor="middle" x="525" y="-283.54" font-family="Helvetica,sans-Serif" font-size="11.00">payload</text>
<text text-anchor="middle" x="525" y="-271.54" font-family="Helvetica,sans-Serif" font-size="11.00">(free JSON object)</text>
</g>
<!-- ENV&#45;&gt;PAY -->
<g id="edge7" class="edge">
<title>ENV&#45;&gt;PAY</title>
<path fill="none" stroke="black" d="M162.52,-356.68C236.47,-341.06 374.32,-311.95 456.76,-294.54"/>
<polygon fill="black" stroke="black" points="457.72,-297.92 466.78,-292.43 456.27,-291.07 457.72,-297.92"/>
</g>
<!-- TS -->
<g id="node9" class="node">
<title>TS</title>
<polygon fill="#dbeafe" stroke="black" points="599,-240.34 451,-240.34 451,-204.34 599,-204.34 599,-240.34"/>
<text text-anchor="middle" x="525" y="-219.54" font-family="Helvetica,sans-Serif" font-size="11.00">created_at / updated_at</text>
</g>
<!-- ENV&#45;&gt;TS -->
<g id="edge8" class="edge">
<title>ENV&#45;&gt;TS</title>
<path fill="none" stroke="black" d="M157.85,-349.31C217.74,-326.01 326.03,-284.7 420,-253.34 430.13,-249.96 440.86,-246.56 451.45,-243.31"/>
<polygon fill="black" stroke="black" points="452.55,-246.64 461.1,-240.38 450.51,-239.94 452.55,-246.64"/>
</g>
<!-- STS -->
<g id="node10" class="node">
<title>STS</title>
<polygon fill="#dbeafe" stroke="black" points="607,-182.34 443,-182.34 443,-146.34 607,-146.34 607,-182.34"/>
<text text-anchor="middle" x="525" y="-167.54" font-family="Helvetica,sans-Serif" font-size="11.00">status</text>
<text text-anchor="middle" x="525" y="-155.54" font-family="Helvetica,sans-Serif" font-size="11.00">CREATED→…→COMPLETED</text>
</g>
<!-- ENV&#45;&gt;STS -->
<g id="edge9" class="edge">
<title>ENV&#45;&gt;STS</title>
<path fill="none" stroke="black" d="M139.4,-349.31C191.96,-315.35 311.39,-241.2 420,-195.34 428.29,-191.85 437.1,-188.57 445.95,-185.57"/>
<polygon fill="black" stroke="black" points="447.14,-188.86 455.55,-182.41 444.96,-182.21 447.14,-188.86"/>
</g>
<!-- POL -->
<g id="node11" class="node">
<title>POL</title>
<polygon fill="#fef3c7" stroke="black" points="598,-124.34 452,-124.34 452,-88.34 598,-88.34 598,-124.34"/>
<text text-anchor="middle" x="525" y="-103.54" font-family="Helvetica,sans-Serif" font-size="11.00">workflow_control_policy</text>
</g>
<!-- ENV&#45;&gt;POL -->
<g id="edge10" class="edge">
<title>ENV&#45;&gt;POL</title>
<path fill="none" stroke="black" d="M131.25,-349.04C177.41,-306.08 299.54,-197.86 420,-137.34 427.12,-133.77 434.73,-130.52 442.47,-127.6"/>
<polygon fill="black" stroke="black" points="443.72,-130.87 451.95,-124.2 441.35,-124.29 443.72,-130.87"/>
</g>
<!-- GRAN -->
<g id="node12" class="node">
<title>GRAN</title>
<polygon fill="#dbeafe" stroke="black" points="1066,-211.34 916,-211.34 916,-175.34 1066,-175.34 1066,-211.34"/>
<text text-anchor="middle" x="991" y="-196.54" font-family="Helvetica,sans-Serif" font-size="11.00">grants</text>
<text text-anchor="middle" x="991" y="-184.54" font-family="Helvetica,sans-Serif" font-size="11.00">(delegated permissions)</text>
</g>
<!-- POL&#45;&gt;GRAN -->
<g id="edge11" class="edge">
<title>POL&#45;&gt;GRAN</title>
<path fill="none" stroke="black" d="M598.25,-119.89C681.39,-135.48 817.75,-161.05 905.68,-177.53"/>
<polygon fill="black" stroke="black" points="905.15,-180.99 915.62,-179.4 906.44,-174.11 905.15,-180.99"/>
</g>
<!-- CTRL -->
<g id="node13" class="node">
<title>CTRL</title>
<polygon fill="#dbeafe" stroke="black" points="1050.5,-153.34 931.5,-153.34 931.5,-117.34 1050.5,-117.34 1050.5,-153.34"/>
<text text-anchor="middle" x="991" y="-138.54" font-family="Helvetica,sans-Serif" font-size="11.00">controls</text>
<text text-anchor="middle" x="991" y="-126.54" font-family="Helvetica,sans-Serif" font-size="11.00">(timeout_seconds)</text>
</g>
<!-- POL&#45;&gt;CTRL -->
<g id="edge12" class="edge">
<title>POL&#45;&gt;CTRL</title>
<path fill="none" stroke="black" d="M598.25,-110.86C686.45,-116.37 834.55,-125.63 921.17,-131.04"/>
<polygon fill="black" stroke="black" points="920.97,-134.54 931.16,-131.67 921.4,-127.55 920.97,-134.54"/>
</g>
<!-- ENV2 -->
<g id="node14" class="node">
<title>ENV2</title>
<polygon fill="#dbeafe" stroke="black" points="1063,-95.34 919,-95.34 919,-59.34 1063,-59.34 1063,-95.34"/>
<text text-anchor="middle" x="991" y="-80.54" font-family="Helvetica,sans-Serif" font-size="11.00">envelope</text>
<text text-anchor="middle" x="991" y="-68.54" font-family="Helvetica,sans-Serif" font-size="11.00">(retry / ttl / expires_at)</text>
</g>
<!-- POL&#45;&gt;ENV2 -->
<g id="edge13" class="edge">
<title>POL&#45;&gt;ENV2</title>
<path fill="none" stroke="black" d="M598.25,-101.83C682.29,-96.58 820.69,-87.92 908.5,-82.44"/>
<polygon fill="black" stroke="black" points="908.92,-85.92 918.69,-81.8 908.49,-78.93 908.92,-85.92"/>
</g>
<!-- PG -->
<g id="node15" class="node">
<title>PG</title>
<polygon fill="#dbeafe" stroke="black" points="1059.5,-37.34 922.5,-37.34 922.5,-1.34 1059.5,-1.34 1059.5,-37.34"/>
<text text-anchor="middle" x="991" y="-22.54" font-family="Helvetica,sans-Serif" font-size="11.00">policy_generation</text>
<text text-anchor="middle" x="991" y="-10.54" font-family="Helvetica,sans-Serif" font-size="11.00">(CAS version counter)</text>
</g>
<!-- POL&#45;&gt;PG -->
<g id="edge14" class="edge">
<title>POL&#45;&gt;PG</title>
<path fill="none" stroke="black" d="M598.25,-92.8C683.6,-76.79 825.03,-50.28 912.58,-33.86"/>
<polygon fill="black" stroke="black" points="913.27,-37.29 922.45,-32.01 911.98,-30.41 913.27,-37.29"/>
</g>
</g>
</svg>
