<?xml version="1.0" encoding="UTF-8" standalone="no"?>
<!DOCTYPE svg PUBLIC "-//W3C//DTD SVG 1.1//EN"
 "http://www.w3.org/Graphics/SVG/1.1/DTD/svg11.dtd">
<!-- Generated by graphviz version 2.43.0 (0)
 -->
<!-- Title: error_model Pages: 1 -->
<svg width="1117pt" height="648pt"
 viewBox="0.00 0.00 1117.37 648.00" xmlns="http://www.w3.org/2000/svg" xmlns:xlink="http://www.w3.org/1999/xlink">
<g id="graph0" class="graph" transform="scale(0.78 0.78) rotate(0) translate(28.8 806.74)">
<title>error_model</title>
<polygon fill="white" stroke="transparent" points="-28.8,28.8 -28.8,-806.74 1411.94,-806.74 1411.94,28.8 -28.8,28.8"/>
<!-- ERR -->
<g id="node1" class="node">
<title>ERR</title>
<polygon fill="#1e40af" stroke="black" points="122.14,-472.89 0.14,-472.89 0.14,-436.89 122.14,-436.89 122.14,-472.89"/>
<text text-anchor="middle" x="61.14" y="-452.09" font-family="Helvetica,sans-Serif" font-size="11.00" fill="white">API Error Response</text>
</g>
<!-- CODE -->
<g id="node2" class="node">
<title>CODE</title>
<polygon fill="#dbeafe" stroke="black" points="271.64,-612.89 158.64,-612.89 158.64,-576.89 271.64,-576.89 271.64,-612.89"/>
<text text-anchor="middle" x="215.14" y="-592.09" font-family="Helvetica,sans-Serif" font-size="11.00">HTTP status code</text>
</g>
<!-- ERR&#45;&gt;CODE -->
<g id="edge1" class="edge">
<title>ERR&#45;&gt;CODE</title>
<path fill="none" stroke="black" d="M81.7,-472.91C108.35,-497.45 156.2,-541.52 186.5,-569.43"/>
<polygon fill="black" stroke="black" points="184.45,-572.3 194.18,-576.5 189.19,-567.15 184.45,-572.3"/>
</g>
<!-- BODY -->
<g id="node3" class="node">
<title>BODY</title>
<polygon fill="#dbeafe" stroke="black" points="252.14,-337.89 178.14,-337.89 178.14,-301.89 252.14,-301.89 252.14,-337.89"/>
<text text-anchor="middle" x="215.14" y="-317.09" font-family="Helvetica,sans-Serif" font-size="11.00">error body</text>
</g>
<!-- ERR&#45;&gt;BODY -->
<g id="edge2" class="edge">
<title>ERR&#45;&gt;BODY</title>
<path fill="none" stroke="black" d="M82.64,-436.69C109.27,-413.03 155.89,-371.63 185.87,-345"/>
<polygon fill="black" stroke="black" points="188.33,-347.5 193.48,-338.24 183.68,-342.27 188.33,-347.5"/>
</g>
<!-- C4xx -->
<g id="node8" class="node">
<title>C4xx</title>
<polygon fill="#dbeafe" stroke="black" points="456.64,-749.89 347.64,-749.89 347.64,-713.89 456.64,-713.89 456.64,-749.89"/>
<text text-anchor="middle" x="402.14" y="-729.09" font-family="Helvetica,sans-Serif" font-size="11.00">4xx Client Errors</text>
</g>
<!-- CODE&#45;&gt;C4xx -->
<g id="edge7" class="edge">
<title>CODE&#45;&gt;C4xx</title>
<path fill="none" stroke="black" d="M240.71,-613.09C273.56,-637.41 331.88,-680.6 368.42,-707.66"/>
<polygon fill="black" stroke="black" points="366.65,-710.71 376.77,-713.84 370.82,-705.08 366.65,-710.71"/>
</g>
<!-- C5xx -->
<g id="node9" class="node">
<title>C5xx</title>
<polygon fill="#dbeafe" stroke="black" points="458.64,-612.89 345.64,-612.89 345.64,-576.89 458.64,-576.89 458.64,-612.89"/>
<text text-anchor="middle" x="402.14" y="-592.09" font-family="Helvetica,sans-Serif" font-size="11.00">5xx Server Errors</text>
</g>
<!-- CODE&#45;&gt;C5xx -->
<g id="edge8" class="edge">
<title>CODE&#45;&gt;C5xx</title>
<path fill="none" stroke="black" d="M271.65,-594.89C291.68,-594.89 314.48,-594.89 335.31,-594.89"/>
<polygon fill="black" stroke="black" points="335.36,-598.39 345.36,-594.89 335.36,-591.39 335.36,-598.39"/>
</g>
<!-- ECODE -->
<g id="node4" class="node">
<title>ECODE</title>
<polygon fill="#dbeafe" stroke="black" points="495.14,-475.89 309.14,-475.89 309.14,-439.89 495.14,-439.89 495.14,-475.89"/>
<text text-anchor="middle" x="402.14" y="-455.09" font-family="Helvetica,sans-Serif" font-size="11.00">error_code (machine&#45;readable)</text>
</g>
<!-- BODY&#45;&gt;ECODE -->
<g id="edge3" class="edge">
<title>BODY&#45;&gt;ECODE</title>
<path fill="none" stroke="black" d="M240.33,-337.93C273.15,-362.42 331.91,-406.25 368.58,-433.6"/>
<polygon fill="black" stroke="black" points="366.84,-436.67 376.95,-439.85 371.03,-431.06 366.84,-436.67"/>
</g>
<!-- MSG -->
<g id="node5" class="node">
<title>MSG</title>
<polygon fill="#dbeafe" stroke="black" points="486.14,-337.89 318.14,-337.89 318.14,-301.89 486.14,-301.89 486.14,-337.89"/>
<text text-anchor="middle" x="402.14" y="-317.09" font-family="Helvetica,sans-Serif" font-size="11.00">message (human&#45;readable)</text>
</g>
<!-- BODY&#45;&gt;MSG -->
<g id="edge4" class="edge">
<title>BODY&#45;&gt;MSG</title>
<path fill="none" stroke="black" d="M252.25,-319.89C268.35,-319.89 288.14,-319.89 307.97,-319.89"/>
<polygon fill="black" stroke="black" points="308.01,-323.39 318.01,-319.89 308.01,-316.39 308.01,-323.39"/>
</g>
<!-- DET -->
<g id="node6" class="node">
<title>DET</title>
<polygon fill="#dbeafe" stroke="black" points="482.64,-200.89 321.64,-200.89 321.64,-164.89 482.64,-164.89 482.64,-200.89"/>
<text text-anchor="middle" x="402.14" y="-180.09" font-family="Helvetica,sans-Serif" font-size="11.00">details (field issues array)</text>
</g>
<!-- BODY&#45;&gt;DET -->
<g id="edge5" class="edge">
<title>BODY&#45;&gt;DET</title>
<path fill="none" stroke="black" d="M240.71,-301.7C273.56,-277.38 331.88,-234.19 368.42,-207.12"/>
<polygon fill="black" stroke="black" points="370.82,-209.71 376.77,-200.94 366.65,-204.08 370.82,-209.71"/>
</g>
<!-- RID -->
<g id="node7" class="node">
<title>RID</title>
<polygon fill="#dbeafe" stroke="black" points="439.14,-63.89 365.14,-63.89 365.14,-27.89 439.14,-27.89 439.14,-63.89"/>
<text text-anchor="middle" x="402.14" y="-43.09" font-family="Helvetica,sans-Serif" font-size="11.00">request_id</text>
</g>
<!-- BODY&#45;&gt;RID -->
<g id="edge6" class="edge">
<title>BODY&#45;&gt;RID</title>
<path fill="none" stroke="black" d="M225.04,-301.78C240.54,-270.86 274.18,-206.33 309.14,-155.89 330.24,-125.46 357.88,-93.26 377.33,-71.62"/>
<polygon fill="black" stroke="black" points="379.98,-73.91 384.1,-64.15 374.8,-69.21 379.98,-73.91"/>
</g>
<!-- RET -->
<g id="node10" class="node">
<title>RET</title>
<polygon fill="#fef3c7" stroke="black" points="591.14,-678.89 532.28,-660.89 591.14,-642.89 650,-660.89 591.14,-678.89"/>
<text text-anchor="middle" x="591.14" y="-658.09" font-family="Helvetica,sans-Serif" font-size="11.00">retriable?</text>
</g>
<!-- C4xx&#45;&gt;RET -->
<g id="edge9" class="edge">
<title>C4xx&#45;&gt;RET</title>
<path fill="none" stroke="black" d="M450.81,-713.79C483.19,-701.5 525.3,-685.51 554.72,-674.34"/>
<polygon fill="black" stroke="black" points="556.07,-677.57 564.17,-670.75 553.58,-671.03 556.07,-677.57"/>
</g>
<!-- C5xx&#45;&gt;RET -->
<g id="edge10" class="edge">
<title>C5xx&#45;&gt;RET</title>
<path fill="none" stroke="black" d="M454.24,-612.93C485.68,-624.02 525.23,-637.98 553.55,-647.98"/>
<polygon fill="black" stroke="black" points="552.47,-651.31 563.06,-651.34 554.8,-644.71 552.47,-651.31"/>
</g>
<!-- DROP -->
<g id="node11" class="node">
<title>DROP</title>
<polygon fill="#fee2e2" stroke="black" points="934.64,-747.89 851.64,-747.89 851.64,-711.89 934.64,-711.89 934.64,-747.89"/>
<text text-anchor="middle" x="893.14" y="-727.09" font-family="Helvetica,sans-Serif" font-size="11.00">do not retry</text>
</g>
<!-- RET&#45;&gt;DROP -->
<g id="edge11" class="edge">
<title>RET&#45;&gt;DROP</title>
<path fill="none" stroke="black" d="M625.39,-668.54C677.85,-680.61 780.16,-704.14 841.71,-718.29"/>
<polygon fill="black" stroke="black" points="841.06,-721.74 851.59,-720.57 842.63,-714.91 841.06,-721.74"/>
<text text-anchor="middle" x="729.14" y="-707.89" font-family="Helvetica,sans-Serif" font-size="10.00">400/403/404/409/410</text>
</g>
<!-- BO -->
<g id="node12" class="node">
<title>BO</title>
<polygon fill="#dbeafe" stroke="black" points="976.64,-609.89 809.64,-609.89 809.64,-573.89 976.64,-573.89 976.64,-609.89"/>
<text text-anchor="middle" x="893.14" y="-589.09" font-family="Helvetica,sans-Serif" font-size="11.00">exponential backoff + jitter</text>
</g>
<!-- RET&#45;&gt;BO -->
<g id="edge12" class="edge">
<title>RET&#45;&gt;BO</title>
<path fill="none" stroke="black" d="M625.39,-653.25C668.1,-643.42 743.84,-626 803.73,-612.23"/>
<polygon fill="black" stroke="black" points="804.61,-615.62 813.57,-609.96 803.04,-608.79 804.61,-615.62"/>
<text text-anchor="middle" x="729.14" y="-644.89" font-family="Helvetica,sans-Serif" font-size="10.00">429/500/502/503/408/504</text>
</g>
<!-- LIM -->
<g id="node13" class="node">
<title>LIM</title>
<polygon fill="#fef3c7" stroke="black" points="1099.14,-609.89 1013.36,-591.89 1099.14,-573.89 1184.93,-591.89 1099.14,-609.89"/>
<text text-anchor="middle" x="1099.14" y="-589.09" font-family="Helvetica,sans-Serif" font-size="11.00">max attempts?</text>
</g>
<!-- BO&#45;&gt;LIM -->
<g id="edge13" class="edge">
<title>BO&#45;&gt;LIM</title>
<path fill="none" stroke="black" d="M976.82,-591.89C985.48,-591.89 994.32,-591.89 1003.1,-591.89"/>
<polygon fill="black" stroke="black" points="1003.35,-595.39 1013.35,-591.89 1003.35,-588.39 1003.35,-595.39"/>
</g>
<!-- DLQ -->
<g id="node14" class="node">
<title>DLQ</title>
<polygon fill="#fee2e2" stroke="black" points="1383.14,-678.89 1269.14,-678.89 1269.14,-642.89 1383.14,-642.89 1383.14,-678.89"/>
<text text-anchor="middle" x="1326.14" y="-658.09" font-family="Helvetica,sans-Serif" font-size="11.00">dead&#45;letter / alert</text>
</g>
<!-- LIM&#45;&gt;DLQ -->
<g id="edge14" class="edge">
<title>LIM&#45;&gt;DLQ</title>
<path fill="none" stroke="black" d="M1134.81,-602.52C1167.9,-612.67 1218.62,-628.23 1259.39,-640.73"/>
<polygon fill="black" stroke="black" points="1258.4,-644.09 1268.98,-643.67 1260.45,-637.39 1258.4,-644.09"/>
<text text-anchor="middle" x="1227.14" y="-638.89" font-family="Helvetica,sans-Serif" font-size="10.00">exceeded</text>
</g>
<!-- RETRY -->
<g id="node15" class="node">
<title>RETRY</title>
<polygon fill="#dbeafe" stroke="black" points="1370.64,-541.89 1281.64,-541.89 1281.64,-505.89 1370.64,-505.89 1370.64,-541.89"/>
<text text-anchor="middle" x="1326.14" y="-521.09" font-family="Helvetica,sans-Serif" font-size="11.00">retry request</text>
</g>
<!-- LIM&#45;&gt;RETRY -->
<g id="edge15" class="edge">
<title>LIM&#45;&gt;RETRY</title>
<path fill="none" stroke="black" d="M1135.3,-581.27C1171.8,-570.24 1229.35,-552.84 1271.53,-540.1"/>
<polygon fill="black" stroke="black" points="1272.8,-543.37 1281.36,-537.13 1270.78,-536.67 1272.8,-543.37"/>
<text text-anchor="middle" x="1227.14" y="-563.89" font-family="Helvetica,sans-Serif" font-size="10.00">ok</text>
</g>
</g>
</svg>
