<?xml version="1.0" encoding="UTF-8" standalone="no"?>
<!DOCTYPE svg PUBLIC "-//W3C//DTD SVG 1.1//EN"
 "http://www.w3.org/Graphics/SVG/1.1/DTD/svg11.dtd">
<!-- Generated by graphviz version 2.43.0 (0)
 -->
<!-- Title: versioning Pages: 1 -->
<svg width="1112pt" height="648pt"
 viewBox="0.00 0.00 1111.86 648.00" xmlns="http://www.w3.org/2000/svg" xmlns:xlink="http://www.w3.org/1999/xlink">
<g id="graph0" class="graph" transform="scale(0.9 0.9) rotate(0) translate(28.8 690.3)">
<title>versioning</title>
<polygon fill="white" stroke="transparent" points="-28.8,28.8 -28.8,-690.3 1205.05,-690.3 1205.05,28.8 -28.8,28.8"/>
<!-- REQ -->
<g id="node1" class="node">
<title>REQ</title>
<polygon fill="#1e40af" stroke="black" points="82.75,-474.62 -0.25,-474.62 -0.25,-438.62 82.75,-438.62 82.75,-474.62"/>
<text text-anchor="middle" x="41.25" y="-453.82" font-family="Helvetica,sans-Serif" font-size="11.00" fill="white">API Request</text>
</g>
<!-- VERS -->
<g id="node2" class="node">
<title>VERS</title>
<polygon fill="#fef3c7" stroke="black" points="209.25,-474.62 120.17,-456.62 209.25,-438.62 298.34,-456.62 209.25,-474.62"/>
<text text-anchor="middle" x="209.25" y="-453.82" font-family="Helvetica,sans-Serif" font-size="11.00">version header?</text>
</g>
<!-- REQ&#45;&gt;VERS -->
<g id="edge1" class="edge">
<title>REQ&#45;&gt;VERS</title>
<path fill="none" stroke="black" d="M82.86,-456.62C91.18,-456.62 100.27,-456.62 109.64,-456.62"/>
<polygon fill="black" stroke="black" points="109.89,-460.12 119.89,-456.62 109.89,-453.12 109.89,-460.12"/>
</g>
<!-- DEF -->
<g id="node3" class="node">
<title>DEF</title>
<polygon fill="#dbeafe" stroke="black" points="646.25,-602.62 524.25,-602.62 524.25,-566.62 646.25,-566.62 646.25,-602.62"/>
<text text-anchor="middle" x="585.25" y="-581.82" font-family="Helvetica,sans-Serif" font-size="11.00">use default version</text>
</g>
<!-- VERS&#45;&gt;DEF -->
<g id="edge2" class="edge">
<title>VERS&#45;&gt;DEF</title>
<path fill="none" stroke="black" d="M243.12,-467.86C305.46,-489.2 441.84,-535.88 522,-563.31"/>
<polygon fill="black" stroke="black" points="520.89,-566.63 531.48,-566.56 523.16,-560.01 520.89,-566.63"/>
<text text-anchor="middle" x="336.25" y="-506.62" font-family="Helvetica,sans-Serif" font-size="10.00">missing</text>
</g>
<!-- CHK -->
<g id="node4" class="node">
<title>CHK</title>
<polygon fill="#fef3c7" stroke="black" points="440.25,-346.62 374.09,-328.62 440.25,-310.62 506.42,-328.62 440.25,-346.62"/>
<text text-anchor="middle" x="440.25" y="-325.82" font-family="Helvetica,sans-Serif" font-size="11.00">supported?</text>
</g>
<!-- VERS&#45;&gt;CHK -->
<g id="edge3" class="edge">
<title>VERS&#45;&gt;CHK</title>
<path fill="none" stroke="black" d="M233.9,-443.4C275.7,-420.03 362.59,-371.47 408.81,-345.63"/>
<polygon fill="black" stroke="black" points="410.73,-348.57 417.75,-340.63 407.32,-342.46 410.73,-348.57"/>
<text text-anchor="middle" x="336.25" y="-398.62" font-family="Helvetica,sans-Serif" font-size="10.00">present</text>
</g>
<!-- ROUT -->
<g id="node5" class="node">
<title>ROUT</title>
<polygon fill="#dbeafe" stroke="black" points="1069.25,-329.62 953.25,-329.62 953.25,-293.62 1069.25,-293.62 1069.25,-329.62"/>
<text text-anchor="middle" x="1011.25" y="-308.82" font-family="Helvetica,sans-Serif" font-size="11.00">versioned handler</text>
</g>
<!-- DEF&#45;&gt;ROUT -->
<g id="edge8" class="edge">
<title>DEF&#45;&gt;ROUT</title>
<path fill="none" stroke="black" d="M646.39,-573.33C721.53,-556.59 850.55,-518.82 935.25,-444.62 968.07,-415.87 989.69,-369.11 1000.95,-339.38"/>
<polygon fill="black" stroke="black" points="1004.37,-340.23 1004.5,-329.63 997.79,-337.83 1004.37,-340.23"/>
</g>
<!-- CHK&#45;&gt;ROUT -->
<g id="edge4" class="edge">
<title>CHK&#45;&gt;ROUT</title>
<path fill="none" stroke="black" d="M500,-326.86C606.43,-323.68 830.47,-316.99 942.9,-313.63"/>
<polygon fill="black" stroke="black" points="943.2,-317.12 953.09,-313.32 942.99,-310.12 943.2,-317.12"/>
<text text-anchor="middle" x="738.25" y="-325.62" font-family="Helvetica,sans-Serif" font-size="10.00">yes</text>
</g>
<!-- WARN -->
<g id="node6" class="node">
<title>WARN</title>
<polygon fill="#dbeafe" stroke="black" points="812.75,-218.62 663.75,-218.62 663.75,-182.62 812.75,-182.62 812.75,-218.62"/>
<text text-anchor="middle" x="738.25" y="-197.82" font-family="Helvetica,sans-Serif" font-size="11.00">add Deprecation header</text>
</g>
<!-- CHK&#45;&gt;WARN -->
<g id="edge5" class="edge">
<title>CHK&#45;&gt;WARN</title>
<path fill="none" stroke="black" d="M466.49,-317.7C514.96,-296.74 621.94,-250.48 685.97,-222.79"/>
<polygon fill="black" stroke="black" points="687.69,-225.86 695.47,-218.68 684.91,-219.44 687.69,-225.86"/>
<text text-anchor="middle" x="585.25" y="-294.62" font-family="Helvetica,sans-Serif" font-size="10.00">deprecated</text>
</g>
<!-- REJ -->
<g id="node7" class="node">
<title>REJ</title>
<polygon fill="#fee2e2" stroke="black" points="935.25,-94.62 831.25,-94.62 831.25,-58.62 935.25,-58.62 935.25,-94.62"/>
<text text-anchor="middle" x="883.25" y="-73.82" font-family="Helvetica,sans-Serif" font-size="11.00">reject 410 Gone</text>
</g>
<!-- CHK&#45;&gt;REJ -->
<g id="edge6" class="edge">
<title>CHK&#45;&gt;REJ</title>
<path fill="none" stroke="black" d="M450.43,-313.29C464.09,-291.61 491.69,-251.91 524.25,-227.62 617,-158.41 746.2,-114.15 821.36,-92.48"/>
<polygon fill="black" stroke="black" points="822.48,-95.8 831.15,-89.7 820.57,-89.07 822.48,-95.8"/>
<text text-anchor="middle" x="585.25" y="-230.62" font-family="Helvetica,sans-Serif" font-size="10.00">sunset passed</text>
</g>
<!-- RESP -->
<g id="node8" class="node">
<title>RESP</title>
<polygon fill="#dcfce7" stroke="black" points="1176.25,-171.62 1106.25,-171.62 1106.25,-135.62 1176.25,-135.62 1176.25,-171.62"/>
<text text-anchor="middle" x="1141.25" y="-150.82" font-family="Helvetica,sans-Serif" font-size="11.00">Response</text>
</g>
<!-- ROUT&#45;&gt;RESP -->
<g id="edge9" class="edge">
<title>ROUT&#45;&gt;RESP</title>
<path fill="none" stroke="black" d="M1026.94,-293.49C1049.48,-265.66 1092.74,-212.26 1118.8,-180.1"/>
<polygon fill="black" stroke="black" points="1121.77,-181.99 1125.35,-172.02 1116.33,-177.58 1121.77,-181.99"/>
</g>
<!-- WARN&#45;&gt;ROUT -->
<g id="edge7" class="edge">
<title>WARN&#45;&gt;ROUT</title>
<path fill="none" stroke="black" d="M783.4,-218.7C830.74,-238.09 905.93,-268.89 956.64,-289.66"/>
<polygon fill="black" stroke="black" points="955.55,-292.99 966.13,-293.54 958.2,-286.51 955.55,-292.99"/>
</g>
<!-- REJ&#45;&gt;RESP -->
<g id="edge10" class="edge">
<title>REJ&#45;&gt;RESP</title>
<path fill="none" stroke="black" d="M935.44,-92.01C982.52,-106.17 1051.58,-126.94 1096.23,-140.38"/>
<polygon fill="black" stroke="black" points="1095.34,-143.76 1105.93,-143.29 1097.36,-137.06 1095.34,-143.76"/>
</g>
</g>
</svg>
