<?xml version="1.0" encoding="UTF-8" standalone="no"?>
<!DOCTYPE svg PUBLIC "-//W3C//DTD SVG 1.1//EN"
 "http://www.w3.org/Graphics/SVG/1.1/DTD/svg11.dtd">
<!-- Generated by graphviz version 2.43.0 (0)
 -->
<!-- Title: schema_governance Pages: 1 -->
<svg width="1118pt" height="648pt"
 viewBox="0.00 0.00 1117.83 648.00" xmlns="http://www.w3.org/2000/svg" xmlns:xlink="http://www.w3.org/1999/xlink">
<g id="graph0" class="graph" transform="scale(0.76 0.76) rotate(0) translate(28.8 818.55)">
<title>schema_governance</title>
<polygon fill="white" stroke="transparent" points="-28.8,28.8 -28.8,-818.55 1432.92,-818.55 1432.92,28.8 -28.8,28.8"/>
<!-- REG -->
<g id="node1" class="node">
<title>REG</title>
<polygon fill="#1e40af" stroke="black" points="110.12,-412.95 0.12,-412.95 0.12,-376.95 110.12,-376.95 110.12,-412.95"/>
<text text-anchor="middle" x="55.12" y="-392.15" font-family="Helvetica,sans-Serif" font-size="11.00" fill="white">Schema Registry</text>
</g>
<!-- COMPAT -->
<g id="node2" class="node">
<title>COMPAT</title>
<polygon fill="#fef3c7" stroke="black" points="266.12,-412.95 147,-394.95 266.12,-376.95 385.24,-394.95 266.12,-412.95"/>
<text text-anchor="middle" x="266.12" y="-392.15" font-family="Helvetica,sans-Serif" font-size="11.00">backward compatible?</text>
</g>
<!-- REG&#45;&gt;COMPAT -->
<g id="edge1" class="edge">
<title>REG&#45;&gt;COMPAT</title>
<path fill="none" stroke="black" d="M110.21,-394.95C118.56,-394.95 127.48,-394.95 136.65,-394.95"/>
<polygon fill="black" stroke="black" points="136.69,-398.45 146.69,-394.95 136.69,-391.45 136.69,-398.45"/>
</g>
<!-- MERGE -->
<g id="node3" class="node">
<title>MERGE</title>
<polygon fill="#dcfce7" stroke="black" points="611.62,-649.95 438.62,-649.95 438.62,-613.95 611.62,-613.95 611.62,-649.95"/>
<text text-anchor="middle" x="525.12" y="-629.15" font-family="Helvetica,sans-Serif" font-size="11.00">merge / publish new version</text>
</g>
<!-- COMPAT&#45;&gt;MERGE -->
<g id="edge2" class="edge">
<title>COMPAT&#45;&gt;MERGE</title>
<path fill="none" stroke="black" d="M283.98,-410.5C327.51,-450.65 443.96,-558.03 497.06,-607"/>
<polygon fill="black" stroke="black" points="494.69,-609.58 504.42,-613.78 499.44,-604.43 494.69,-609.58"/>
<text text-anchor="middle" x="412.12" y="-536.95" font-family="Helvetica,sans-Serif" font-size="10.00">yes</text>
</g>
<!-- BREAK -->
<g id="node4" class="node">
<title>BREAK</title>
<polygon fill="#dbeafe" stroke="black" points="596.62,-175.95 453.62,-175.95 453.62,-139.95 596.62,-139.95 596.62,-175.95"/>
<text text-anchor="middle" x="525.12" y="-155.15" font-family="Helvetica,sans-Serif" font-size="11.00">breaking change policy</text>
</g>
<!-- COMPAT&#45;&gt;BREAK -->
<g id="edge3" class="edge">
<title>COMPAT&#45;&gt;BREAK</title>
<path fill="none" stroke="black" d="M283.98,-379.4C327.51,-339.25 443.96,-231.87 497.06,-182.9"/>
<polygon fill="black" stroke="black" points="499.44,-185.47 504.42,-176.12 494.69,-180.32 499.44,-185.47"/>
<text text-anchor="middle" x="412.12" y="-271.95" font-family="Helvetica,sans-Serif" font-size="10.00">no</text>
</g>
<!-- NOTIFY -->
<g id="node9" class="node">
<title>NOTIFY</title>
<polygon fill="#dbeafe" stroke="black" points="841.12,-649.95 649.12,-649.95 649.12,-613.95 841.12,-613.95 841.12,-649.95"/>
<text text-anchor="middle" x="745.12" y="-629.15" font-family="Helvetica,sans-Serif" font-size="11.00">notify consumers via changelog</text>
</g>
<!-- MERGE&#45;&gt;NOTIFY -->
<g id="edge8" class="edge">
<title>MERGE&#45;&gt;NOTIFY</title>
<path fill="none" stroke="black" d="M611.65,-631.95C620.58,-631.95 629.73,-631.95 638.84,-631.95"/>
<polygon fill="black" stroke="black" points="639.1,-635.45 649.1,-631.95 639.1,-628.45 639.1,-635.45"/>
</g>
<!-- NEWVER -->
<g id="node5" class="node">
<title>NEWVER</title>
<polygon fill="#dbeafe" stroke="black" points="837.62,-175.95 652.62,-175.95 652.62,-139.95 837.62,-139.95 837.62,-175.95"/>
<text text-anchor="middle" x="745.12" y="-155.15" font-family="Helvetica,sans-Serif" font-size="11.00">new major version namespace</text>
</g>
<!-- BREAK&#45;&gt;NEWVER -->
<g id="edge4" class="edge">
<title>BREAK&#45;&gt;NEWVER</title>
<path fill="none" stroke="black" d="M596.9,-157.95C611.38,-157.95 626.89,-157.95 642.22,-157.95"/>
<polygon fill="black" stroke="black" points="642.25,-161.45 652.25,-157.95 642.25,-154.45 642.25,-161.45"/>
</g>
<!-- COEX -->
<g id="node6" class="node">
<title>COEX</title>
<polygon fill="#dbeafe" stroke="black" points="1062.12,-175.95 878.12,-175.95 878.12,-139.95 1062.12,-139.95 1062.12,-175.95"/>
<text text-anchor="middle" x="970.12" y="-155.15" font-family="Helvetica,sans-Serif" font-size="11.00">old + new coexist until sunset</text>
</g>
<!-- NEWVER&#45;&gt;COEX -->
<g id="edge5" class="edge">
<title>NEWVER&#45;&gt;COEX</title>
<path fill="none" stroke="black" d="M837.79,-157.95C847.59,-157.95 857.61,-157.95 867.53,-157.95"/>
<polygon fill="black" stroke="black" points="867.81,-161.45 877.81,-157.95 867.81,-154.45 867.81,-161.45"/>
</g>
<!-- DEP -->
<g id="node7" class="node">
<title>DEP</title>
<polygon fill="#fef3c7" stroke="black" points="1191.12,-175.95 1099.12,-175.95 1099.12,-139.95 1191.12,-139.95 1191.12,-175.95"/>
<text text-anchor="middle" x="1145.12" y="-155.15" font-family="Helvetica,sans-Serif" font-size="11.00">deprecate old</text>
</g>
<!-- COEX&#45;&gt;DEP -->
<g id="edge6" class="edge">
<title>COEX&#45;&gt;DEP</title>
<path fill="none" stroke="black" d="M1062.18,-157.95C1071.21,-157.95 1080.17,-157.95 1088.67,-157.95"/>
<polygon fill="black" stroke="black" points="1088.78,-161.45 1098.78,-157.95 1088.78,-154.45 1088.78,-161.45"/>
</g>
<!-- SUN -->
<g id="node8" class="node">
<title>SUN</title>
<polygon fill="#fee2e2" stroke="black" points="1404.12,-175.95 1228.12,-175.95 1228.12,-139.95 1404.12,-139.95 1404.12,-175.95"/>
<text text-anchor="middle" x="1316.12" y="-155.15" font-family="Helvetica,sans-Serif" font-size="11.00">sunset old after grace period</text>
</g>
<!-- DEP&#45;&gt;SUN -->
<g id="edge7" class="edge">
<title>DEP&#45;&gt;SUN</title>
<path fill="none" stroke="black" d="M1191.41,-157.95C1199.74,-157.95 1208.72,-157.95 1217.91,-157.95"/>
<polygon fill="black" stroke="black" points="1217.93,-161.45 1227.93,-157.95 1217.93,-154.45 1217.93,-161.45"/>
</g>
</g>
</svg>
