<?xml version="1.0" encoding="UTF-8" standalone="no"?>
<!DOCTYPE svg PUBLIC "-//W3C//DTD SVG 1.1//EN"
 "http://www.w3.org/Graphics/SVG/1.1/DTD/svg11.dtd">
<!-- Generated by graphviz version 2.43.0 (0)
 -->
<!-- Title: payload_ext Pages: 1 -->
<svg width="1111pt" height="648pt"
 viewBox="0.00 0.00 1111.34 648.00" xmlns="http://www.w3.org/2000/svg" xmlns:xlink="http://www.w3.org/1999/xlink">
<g id="graph0" class="graph" transform="scale(0.92 0.92) rotate(0) translate(28.8 676.8)">
<title>payload_ext</title>
<polygon fill="white" stroke="transparent" points="-28.8,28.8 -28.8,-676.8 1181.32,-676.8 1181.32,28.8 -28.8,28.8"/>
<!-- BASE -->
<g id="node1" class="node">
<title>BASE</title>
<polygon fill="#1e40af" stroke="black" points="122.52,-411.71 8.52,-411.71 8.52,-375.71 122.52,-375.71 122.52,-411.71"/>
<text text-anchor="middle" x="65.52" y="-390.91" font-family="Helvetica,sans-Serif" font-size="11.00" fill="white">Base Intent Fields</text>
</g>
<!-- TYPE -->
<g id="node2" class="node">
<title>TYPE</title>
<polygon fill="#dbeafe" stroke="black" points="283.02,-619.71 204.02,-619.71 204.02,-583.71 283.02,-583.71 283.02,-619.71"/>
<text text-anchor="middle" x="243.52" y="-598.91" font-family="Helvetica,sans-Serif" font-size="11.00">intent_type</text>
</g>
<!-- BASE&#45;&gt;TYPE -->
<g id="edge1" class="edge">
<title>BASE&#45;&gt;TYPE</title>
<path fill="none" stroke="black" d="M81.83,-411.81C113.1,-448.76 184.4,-533.02 220.58,-575.79"/>
<polygon fill="black" stroke="black" points="217.99,-578.14 227.12,-583.51 223.33,-573.62 217.99,-578.14"/>
</g>
<!-- FROM -->
<g id="node3" class="node">
<title>FROM</title>
<polygon fill="#dbeafe" stroke="black" points="283.02,-480.71 204.02,-480.71 204.02,-444.71 283.02,-444.71 283.02,-480.71"/>
<text text-anchor="middle" x="243.52" y="-459.91" font-family="Helvetica,sans-Serif" font-size="11.00">from_agent</text>
</g>
<!-- BASE&#45;&gt;FROM -->
<g id="edge2" class="edge">
<title>BASE&#45;&gt;FROM</title>
<path fill="none" stroke="black" d="M112.76,-411.84C137.96,-421.72 169.1,-433.93 194.56,-443.91"/>
<polygon fill="black" stroke="black" points="193.43,-447.23 204.02,-447.62 195.98,-440.71 193.43,-447.23"/>
</g>
<!-- TO -->
<g id="node4" class="node">
<title>TO</title>
<polygon fill="#dbeafe" stroke="black" points="276.02,-341.71 211.02,-341.71 211.02,-305.71 276.02,-305.71 276.02,-341.71"/>
<text text-anchor="middle" x="243.52" y="-320.91" font-family="Helvetica,sans-Serif" font-size="11.00">to_agent</text>
</g>
<!-- BASE&#45;&gt;TO -->
<g id="edge3" class="edge">
<title>BASE&#45;&gt;TO</title>
<path fill="none" stroke="black" d="M111.84,-375.69C139.51,-364.68 174.6,-350.73 201.46,-340.05"/>
<polygon fill="black" stroke="black" points="202.95,-343.22 210.95,-336.27 200.36,-336.72 202.95,-343.22"/>
</g>
<!-- PAY -->
<g id="node5" class="node">
<title>PAY</title>
<polygon fill="#fef3c7" stroke="black" points="303.52,-202.71 183.52,-202.71 183.52,-166.71 303.52,-166.71 303.52,-202.71"/>
<text text-anchor="middle" x="243.52" y="-181.91" font-family="Helvetica,sans-Serif" font-size="11.00">payload: free JSON</text>
</g>
<!-- BASE&#45;&gt;PAY -->
<g id="edge4" class="edge">
<title>BASE&#45;&gt;PAY</title>
<path fill="none" stroke="black" d="M81.83,-375.53C113.1,-338.4 184.4,-253.74 220.58,-210.77"/>
<polygon fill="black" stroke="black" points="223.36,-212.91 227.12,-203 218,-208.4 223.36,-212.91"/>
</g>
<!-- BIZ -->
<g id="node6" class="node">
<title>BIZ</title>
<polygon fill="#dbeafe" stroke="black" points="622.52,-272.71 440.52,-272.71 440.52,-236.71 622.52,-236.71 622.52,-272.71"/>
<text text-anchor="middle" x="531.52" y="-257.91" font-family="Helvetica,sans-Serif" font-size="11.00">business domain data</text>
<text text-anchor="middle" x="531.52" y="-245.91" font-family="Helvetica,sans-Serif" font-size="11.00">(amount / currency / order_id)</text>
</g>
<!-- PAY&#45;&gt;BIZ -->
<g id="edge5" class="edge">
<title>PAY&#45;&gt;BIZ</title>
<path fill="none" stroke="black" d="M303.78,-199.22C345.16,-209.35 401,-223.01 446.9,-234.25"/>
<polygon fill="black" stroke="black" points="446.29,-237.7 456.84,-236.68 447.96,-230.9 446.29,-237.7"/>
</g>
<!-- SEMA -->
<g id="node7" class="node">
<title>SEMA</title>
<polygon fill="#fef3c7" stroke="black" points="531.52,-133.71 379.07,-115.71 531.52,-97.71 683.97,-115.71 531.52,-133.71"/>
<text text-anchor="middle" x="531.52" y="-112.91" font-family="Helvetica,sans-Serif" font-size="11.00">semantic schema registered?</text>
</g>
<!-- PAY&#45;&gt;SEMA -->
<g id="edge6" class="edge">
<title>PAY&#45;&gt;SEMA</title>
<path fill="none" stroke="black" d="M303.78,-170.42C352.61,-158.64 421.55,-142 470.57,-130.18"/>
<polygon fill="black" stroke="black" points="471.5,-133.55 480.4,-127.81 469.86,-126.75 471.5,-133.55"/>
</g>
<!-- VAL -->
<g id="node8" class="node">
<title>VAL</title>
<polygon fill="#dbeafe" stroke="black" points="967.02,-202.71 784.02,-202.71 784.02,-166.71 967.02,-166.71 967.02,-202.71"/>
<text text-anchor="middle" x="875.52" y="-181.91" font-family="Helvetica,sans-Serif" font-size="11.00">validate against JSON Schema</text>
</g>
<!-- SEMA&#45;&gt;VAL -->
<g id="edge7" class="edge">
<title>SEMA&#45;&gt;VAL</title>
<path fill="none" stroke="black" d="M588.61,-127.03C639.14,-137.23 714.59,-152.45 775.3,-164.7"/>
<polygon fill="black" stroke="black" points="774.8,-168.16 785.29,-166.71 776.18,-161.3 774.8,-168.16"/>
<text text-anchor="middle" x="738.52" y="-160.71" font-family="Helvetica,sans-Serif" font-size="10.00">yes</text>
</g>
<!-- OPAQ -->
<g id="node9" class="node">
<title>OPAQ</title>
<polygon fill="#dbeafe" stroke="black" points="924.02,-64.71 827.02,-64.71 827.02,-28.71 924.02,-28.71 924.02,-64.71"/>
<text text-anchor="middle" x="875.52" y="-49.91" font-family="Helvetica,sans-Serif" font-size="11.00">store opaque</text>
<text text-anchor="middle" x="875.52" y="-37.91" font-family="Helvetica,sans-Serif" font-size="11.00">(no validation)</text>
</g>
<!-- SEMA&#45;&gt;OPAQ -->
<g id="edge8" class="edge">
<title>SEMA&#45;&gt;OPAQ</title>
<path fill="none" stroke="black" d="M588.61,-104.4C651.66,-91.68 753.49,-71.13 817.09,-58.3"/>
<polygon fill="black" stroke="black" points="817.84,-61.72 826.95,-56.31 816.46,-54.86 817.84,-61.72"/>
<text text-anchor="middle" x="738.52" y="-78.71" font-family="Helvetica,sans-Serif" font-size="10.00">no</text>
</g>
<!-- ACC -->
<g id="node10" class="node">
<title>ACC</title>
<polygon fill="#dcfce7" stroke="black" points="1146.02,-79.71 1057.02,-79.71 1057.02,-43.71 1146.02,-43.71 1146.02,-79.71"/>
<text text-anchor="middle" x="1101.52" y="-58.91" font-family="Helvetica,sans-Serif" font-size="11.00">accept intent</text>
</g>
<!-- VAL&#45;&gt;ACC -->
<g id="edge9" class="edge">
<title>VAL&#45;&gt;ACC</title>
<path fill="none" stroke="black" d="M909.57,-166.57C949.22,-144.79 1015.74,-108.27 1058.87,-84.59"/>
<polygon fill="black" stroke="black" points="1060.62,-87.62 1067.7,-79.74 1057.25,-81.48 1060.62,-87.62"/>
<text text-anchor="middle" x="1015.52" y="-114.71" font-family="Helvetica,sans-Serif" font-size="10.00">pass</text>
</g>
<!-- REJ -->
<g id="node11" class="node">
<title>REJ</title>
<polygon fill="#fee2e2" stroke="black" points="1137.52,-236.71 1065.52,-236.71 1065.52,-200.71 1137.52,-200.71 1137.52,-236.71"/>
<text text-anchor="middle" x="1101.52" y="-215.91" font-family="Helvetica,sans-Serif" font-size="11.00">reject 422</text>
</g>
<!-- VAL&#45;&gt;REJ -->
<g id="edge10" class="edge">
<title>VAL&#45;&gt;REJ</title>
<path fill="none" stroke="black" d="M967.31,-198.49C997.58,-203.09 1030,-208.01 1055.27,-211.85"/>
<polygon fill="black" stroke="black" points="1054.88,-215.33 1065.29,-213.37 1055.93,-208.41 1054.88,-215.33"/>
<text text-anchor="middle" x="1015.52" y="-209.71" font-family="Helvetica,sans-Serif" font-size="10.00">fail</text>
</g>
<!-- OPAQ&#45;&gt;ACC -->
<g id="edge11" class="edge">
<title>OPAQ&#45;&gt;ACC</title>
<path fill="none" stroke="black" d="M924.03,-49.9C959.95,-52.3 1009.29,-55.61 1046.68,-58.11"/>
<polygon fill="black" stroke="black" points="1046.67,-61.62 1056.88,-58.79 1047.14,-54.63 1046.67,-61.62"/>
</g>
</g>
</svg>
